<?xml version="1.0" encoding="UTF-8"?>
<svg xmlns="http://www.w3.org/2000/svg" width="253" height="63" viewBox="0 0 253 63" fill="none">
  <path d="M7.80756 13.5291C7.09134 13.8029 6.2698 13.4237 6.01702 12.7075C5.74318 11.9913 6.12235 11.1908 6.83856 10.917C10.3775 9.61096 13.4109 8.24173 16.2547 6.55652C19.0774 4.89237 21.7527 2.89119 24.5333 0.363373C25.081 -0.121124 25.9025 -0.121124 26.4291 0.363373C29.2097 2.89119 31.8639 4.89237 34.7077 6.55652C37.5515 8.24173 40.5849 9.61096 44.1238 10.917C44.84 11.1908 45.2192 11.9913 44.9454 12.7075C44.6715 13.4237 43.871 13.7819 43.1548 13.5291C39.4684 12.1598 36.2876 10.7274 33.2963 8.95794C30.6211 7.37806 28.0933 5.54539 25.5023 3.27036C22.9112 5.54539 20.4045 7.37806 17.7082 8.95794C14.6748 10.7274 11.494 12.1598 7.80756 13.5291Z" fill="black"></path>
  <path d="M14.6104 17.1308C13.8942 17.4047 13.0726 17.0466 12.7988 16.3093C12.5249 15.5931 12.883 14.7715 13.6203 14.4977C15.3898 13.8236 17.1593 12.981 18.9709 11.9067C20.8035 10.8324 22.6573 9.52631 24.5952 7.94643C25.1219 7.50406 25.8802 7.52513 26.3858 7.9675C28.3027 9.54738 30.1564 10.8534 31.9891 11.9277C33.8007 13.0021 35.5702 13.8447 37.3396 14.5187C38.0559 14.7926 38.435 15.6141 38.1612 16.3303C37.8873 17.0466 37.0658 17.4257 36.3496 17.1519C34.4327 16.4146 32.5157 15.5088 30.5777 14.3502C28.9347 13.3812 27.2495 12.2226 25.501 10.8324C23.7526 12.2016 22.0674 13.3602 20.4244 14.3502C18.4442 15.4877 16.5273 16.3935 14.6104 17.1308Z" fill="black"></path>
  <path d="M26.8716 61.5789C26.8716 62.3583 26.2396 62.9903 25.4602 62.9903C24.6808 62.9903 24.0488 62.3583 24.0488 61.5789V45.6116C24.0488 44.8321 24.6808 44.2002 25.4602 44.2002C26.2396 44.2002 26.8716 44.8321 26.8716 45.6116V61.5789Z" fill="black"></path>
  <path d="M16.0227 20.9439C16.7178 21.2809 17.0127 22.1235 16.6757 22.8187C16.3386 23.5138 15.496 23.8087 14.8009 23.4717L0.792587 16.7309C0.0974384 16.3938 -0.197473 15.5512 0.139569 14.8561C0.47661 14.1609 1.31922 13.866 2.01436 14.203C2.01436 14.182 16.0227 20.9439 16.0227 20.9439Z" fill="black"></path>
  <path d="M25.4605 44.1155C27.9041 43.2097 30.0106 42.0512 31.5273 40.5134C33.065 38.9546 34.013 36.9745 34.1394 34.4256V23.1768C32.5805 22.6081 31.0639 21.8708 29.6314 21.0703C28.1147 20.1856 26.7034 19.1955 25.4605 18.1844C24.2177 19.2166 22.8063 20.2066 21.2896 21.0703C19.8783 21.8918 18.3616 22.6081 16.7817 23.1768V34.4888C16.9081 37.0166 17.8771 38.9967 19.3938 40.5345C20.9315 42.0722 23.038 43.2308 25.4605 44.1155ZM33.5285 42.4935C31.5694 44.4736 28.9363 45.885 25.924 46.9383C25.6291 47.0436 25.3131 47.0436 24.9971 46.9383C21.9848 45.885 19.3517 44.4736 17.3926 42.4935C15.3914 40.4713 14.1486 37.9224 13.98 34.6152C13.98 34.552 13.959 34.4888 13.959 34.4256V22.1657C13.959 21.5759 14.3382 21.0071 14.949 20.8175C16.6553 20.2698 18.3195 19.5115 19.8572 18.6267C21.6056 17.6156 23.1855 16.457 24.5126 15.2774C25.0392 14.814 25.8397 14.7929 26.3663 15.2774C27.6934 16.457 29.2733 17.6156 31.0217 18.6267C32.5384 19.5115 34.1815 20.2698 35.8667 20.7965C36.4776 20.9439 36.941 21.5127 36.941 22.1657V34.4256V34.4888C36.7936 37.8381 35.5507 40.4502 33.5285 42.4935Z" fill="black"></path>
  <path d="M36.1394 23.4713C35.4442 23.8083 34.6016 23.5134 34.2646 22.8183C33.9275 22.1231 34.2224 21.2805 34.9176 20.9435L48.9259 14.1816C49.621 13.8445 50.4636 14.1394 50.8007 14.8346C51.1377 15.5297 50.8428 16.3723 50.1477 16.7094L36.1394 23.4713Z" fill="black"></path>
  <path d="M1.59375 21.8498C1.59375 21.0704 2.2257 20.4385 3.00511 20.4385C3.78452 20.4385 4.41648 21.0704 4.41648 21.8498V36.7007V36.8061C4.45861 41.314 6.05955 45.1268 8.5663 48.3287C11.7261 52.3521 16.3183 55.4276 21.1211 57.7237C21.8163 58.0608 22.1112 58.8823 21.7741 59.5775C21.4371 60.2726 20.6155 60.5675 19.9204 60.2305C14.7594 57.7448 9.80914 54.4165 6.35447 50.035C3.48961 46.3907 1.65695 42.0092 1.61482 36.8061V36.6586L1.59375 21.8498Z" fill="black"></path>
  <path d="M7.97656 25.4944C7.97656 24.715 8.60852 24.083 9.38793 24.083C10.1673 24.083 10.7993 24.715 10.7993 25.4944V35.9427V36.048C10.8414 38.7022 11.7472 41.2932 13.4746 43.6525C15.223 46.0539 17.814 48.2026 21.1633 49.8878C21.8585 50.2459 22.1323 51.0885 21.7742 51.7836C21.4161 52.4788 20.5735 52.7526 19.8784 52.3945C16.1498 50.4987 13.2218 48.0551 11.1995 45.3166C9.13514 42.4939 8.03976 39.3552 7.99763 36.0901V35.9427V25.4944H7.97656Z" fill="black"></path>
  <path d="M46.5465 21.8498C46.5465 21.0704 47.1784 20.4385 47.9578 20.4385C48.7372 20.4385 49.3692 21.0704 49.3692 21.8498V36.7007V36.8482C49.306 42.0513 47.4944 46.4118 44.6295 50.0771C41.1749 54.4586 36.2246 57.7869 31.0636 60.2726C30.3685 60.6097 29.5259 60.3147 29.2099 59.6196C28.8728 58.9244 29.1677 58.0818 29.8629 57.7659C34.6657 55.4487 39.279 52.3732 42.4388 48.3498C44.9455 45.1479 46.5465 41.3561 46.5886 36.8271V36.7218L46.5465 21.8498Z" fill="black"></path>
  <path d="M40.1425 25.4944C40.1425 24.715 40.7744 24.083 41.5538 24.083C42.3332 24.083 42.9652 24.715 42.9652 25.4944V35.9427V36.0901C42.9231 39.3552 41.8277 42.4939 39.7633 45.3166C37.741 48.0762 34.813 50.4987 31.0845 52.3945C30.3893 52.7526 29.5467 52.4788 29.1886 51.7836C28.8305 51.0885 29.1044 50.2459 29.7995 49.8878C33.1278 48.1815 35.7399 46.0539 37.4883 43.6525C39.1945 41.3143 40.1214 38.7233 40.1635 36.048V35.9427V25.4944H40.1425Z" fill="black"></path>
  <path d="M61.25 57.0493C61.7345 57.3442 62.4507 57.597 63.188 57.597C64.2834 57.597 64.9364 57.0072 64.9364 56.1856C64.9364 55.4062 64.494 54.9638 63.3565 54.5215C61.9873 54.037 61.1447 53.3418 61.1447 52.1622C61.1447 50.8561 62.219 49.9082 63.841 49.9082C64.7047 49.9082 65.3156 50.0978 65.6947 50.3084L65.3998 51.1932C65.126 51.0457 64.5783 50.7929 63.7989 50.7929C62.6614 50.7929 62.219 51.467 62.219 52.0358C62.219 52.8152 62.7245 53.1944 63.8831 53.6367C65.2945 54.1844 66.0107 54.8585 66.0107 56.0803C66.0107 57.3653 65.0628 58.4817 63.0827 58.4817C62.2822 58.4817 61.3974 58.25 60.9551 57.9551L61.25 57.0493Z" fill="black"></path>
  <path d="M68.1591 55.5543C68.1802 57.0289 69.1281 57.6397 70.2235 57.6397C71.0029 57.6397 71.4664 57.5134 71.8877 57.3238L72.0773 58.1032C71.6981 58.2717 71.0451 58.4823 70.0761 58.4823C68.2223 58.4823 67.127 57.2606 67.127 55.47C67.127 53.6795 68.2013 52.2471 69.9497 52.2471C71.9087 52.2471 72.4354 53.9744 72.4354 55.0698C72.4354 55.2804 72.4143 55.47 72.3932 55.5754H68.1591V55.5543ZM71.361 54.7749C71.361 54.0797 71.0661 53.0054 69.8444 53.0054C68.749 53.0054 68.2434 54.0165 68.1591 54.7749H71.361Z" fill="black"></path>
  <path d="M78.0604 58.1242C77.7655 58.2717 77.1546 58.4823 76.333 58.4823C74.5214 58.4823 73.3418 57.2606 73.3418 55.4279C73.3418 53.5952 74.6057 52.2471 76.5648 52.2471C77.2178 52.2471 77.7865 52.4156 78.0814 52.563L77.8287 53.4057C77.5759 53.2582 77.1546 53.1107 76.5648 53.1107C75.1745 53.1107 74.4372 54.1219 74.4372 55.3647C74.4372 56.755 75.3219 57.5976 76.5226 57.5976C77.1335 57.5976 77.5548 57.4291 77.8708 57.3027L78.0604 58.1242Z" fill="black"></path>
  <path d="M84.3584 56.7331C84.3584 57.344 84.3584 57.8917 84.4005 58.3551H83.4315L83.3683 57.3651H83.3472C83.0523 57.8496 82.4414 58.4815 81.3671 58.4815C80.4192 58.4815 79.3027 57.9549 79.3027 55.8484V52.3516H80.3981V55.6588C80.3981 56.7963 80.7562 57.5546 81.7463 57.5546C82.4836 57.5546 82.9891 57.0491 83.1787 56.5646C83.2419 56.3961 83.284 56.2065 83.284 56.0169V52.3516H84.3794L84.3584 56.7331Z" fill="black"></path>
  <path d="M86.1691 54.2272C86.1691 53.511 86.1691 52.9212 86.127 52.3735H87.0959L87.1381 53.5531H87.1802C87.4541 52.7526 88.1071 52.2471 88.8444 52.2471C88.9707 52.2471 89.055 52.2471 89.1603 52.2892V53.3214C89.055 53.3003 88.9497 53.2793 88.7812 53.2793C88.0017 53.2793 87.4751 53.8691 87.3277 54.6696C87.3066 54.817 87.2855 54.9855 87.2855 55.1751V58.356H86.2112L86.1691 54.2272Z" fill="black"></path>
  <path d="M91.4986 50.6878C91.4986 51.0669 91.2458 51.3618 90.8034 51.3618C90.4242 51.3618 90.1504 51.0669 90.1504 50.6878C90.1504 50.3086 90.4453 50.0137 90.8455 50.0137C91.2247 50.0137 91.4986 50.3086 91.4986 50.6878ZM90.2768 58.3555V52.373H91.3722V58.3555H90.2768Z" fill="black"></path>
  <path d="M94.4895 50.6455V52.3728H96.0483V53.1944H94.4895V56.4173C94.4895 57.1546 94.7001 57.5759 95.311 57.5759C95.6059 57.5759 95.8166 57.5338 95.943 57.4917L95.9851 58.3132C95.7744 58.3975 95.4374 58.4607 95.0161 58.4607C94.5105 58.4607 94.1103 58.2921 93.8364 57.9972C93.5205 57.6813 93.4151 57.1546 93.4151 56.4384V53.1733H92.4883V52.3518H93.4151V50.9194L94.4895 50.6455Z" fill="black"></path>
  <path d="M97.7975 52.373L99.1036 55.912C99.23 56.3122 99.3985 56.7757 99.4827 57.1338H99.5038C99.6091 56.7757 99.7355 56.3122 99.883 55.8909L101.084 52.373H102.242L100.599 56.6282C99.8198 58.6715 99.2932 59.7248 98.5348 60.3778C98.0082 60.8412 97.4605 61.0308 97.1866 61.094L96.9128 60.1882C97.1866 60.1039 97.5448 59.9354 97.8607 59.6616C98.1556 59.4299 98.5348 59.0086 98.7665 58.4398C98.8297 58.3345 98.8508 58.2502 98.8508 58.187C98.8508 58.1238 98.8297 58.0396 98.7665 57.8921L96.5547 52.3941L97.7975 52.373Z" fill="black"></path>
  <path d="M102.053 59.8724C102.327 59.1562 102.664 57.8291 102.79 56.9233L104.012 56.7969C103.717 57.8501 103.19 59.2194 102.832 59.8092L102.053 59.8724Z" fill="black"></path>
  <path d="M107.994 50.1187C108.521 50.0345 109.195 49.9502 110.08 49.9502C111.154 49.9502 111.933 50.203 112.418 50.6453C112.881 51.0456 113.155 51.6565 113.155 52.3937C113.155 53.131 112.944 53.7419 112.502 54.1632C111.933 54.7741 111.006 55.069 109.953 55.069C109.637 55.069 109.342 55.069 109.09 54.9848V58.3552H108.015L107.994 50.1187ZM109.068 54.1422C109.3 54.2053 109.595 54.2264 109.953 54.2264C111.259 54.2264 112.06 53.5945 112.06 52.4569C112.06 51.3194 111.28 50.8349 110.08 50.8349C109.595 50.8349 109.258 50.8771 109.068 50.9192V54.1422Z" fill="black"></path>
  <path d="M114.355 54.2272C114.355 53.511 114.355 52.9212 114.312 52.3735H115.26L115.303 53.5531H115.345C115.619 52.7526 116.272 52.2471 117.009 52.2471C117.135 52.2471 117.219 52.2471 117.325 52.2892V53.3214C117.219 53.3003 117.114 53.2793 116.946 53.2793C116.166 53.2793 115.64 53.8691 115.471 54.6696C115.45 54.817 115.429 54.9855 115.429 55.1751V58.356H114.355V54.2272Z" fill="black"></path>
  <path d="M119.684 50.6878C119.684 51.0669 119.431 51.3618 118.989 51.3618C118.61 51.3618 118.336 51.0669 118.336 50.6878C118.336 50.3086 118.631 50.0137 119.031 50.0137C119.41 50.0137 119.684 50.3086 119.684 50.6878ZM118.462 58.3555V52.373H119.558V58.3555H118.462Z" fill="black"></path>
  <path d="M121.791 52.373L122.971 55.7435C123.161 56.2912 123.329 56.7757 123.456 57.2812H123.498C123.624 56.7757 123.814 56.2912 124.003 55.7435L125.162 52.373H126.299L123.961 58.3555H122.929L120.633 52.373H121.791Z" fill="black"></path>
  <path d="M130.616 58.3551L130.532 57.5968H130.49C130.152 58.0602 129.499 58.4815 128.657 58.4815C127.435 58.4815 126.824 57.6389 126.824 56.7542C126.824 55.3217 128.109 54.5213 130.426 54.5213V54.3949C130.426 53.8893 130.3 53.0046 129.057 53.0046C128.488 53.0046 127.92 53.1731 127.498 53.4469L127.246 52.7307C127.751 52.4148 128.467 52.2041 129.226 52.2041C131.058 52.2041 131.522 53.4469 131.522 54.6477V56.8806C131.522 57.4072 131.543 57.9127 131.627 58.313L130.616 58.3551ZM130.447 55.3007C129.247 55.2796 127.899 55.4903 127.899 56.6488C127.899 57.3651 128.362 57.681 128.931 57.681C129.71 57.681 130.216 57.1755 130.384 56.6699C130.426 56.5646 130.447 56.4382 130.447 56.3329V55.3007Z" fill="black"></path>
  <path d="M137.547 58.1242C137.252 58.2717 136.641 58.4823 135.819 58.4823C134.008 58.4823 132.828 57.2606 132.828 55.4279C132.828 53.5952 134.092 52.2471 136.051 52.2471C136.704 52.2471 137.273 52.4156 137.568 52.563L137.315 53.4057C137.062 53.2582 136.641 53.1107 136.051 53.1107C134.661 53.1107 133.924 54.1219 133.924 55.3647C133.924 56.755 134.808 57.5976 136.009 57.5976C136.62 57.5976 137.041 57.4291 137.357 57.3027L137.547 58.1242Z" fill="black"></path>
  <path d="M139.444 52.373L140.75 55.912C140.876 56.3122 141.045 56.7757 141.129 57.1338H141.15C141.256 56.7757 141.382 56.3122 141.529 55.8909L142.73 52.373H143.889L142.246 56.6282C141.466 58.6715 140.94 59.7248 140.181 60.3778C139.655 60.8412 139.107 61.0308 138.833 61.094L138.559 60.1882C138.833 60.1039 139.191 59.9354 139.507 59.6616C139.802 59.4299 140.181 59.0086 140.413 58.4398C140.455 58.3345 140.497 58.2502 140.497 58.187C140.497 58.1238 140.476 58.0396 140.413 57.8921L138.201 52.3941L139.444 52.373Z" fill="black"></path>
  <path d="M152.799 58.3555C152.567 58.1237 152.335 57.892 152.019 57.5339C151.303 58.208 150.503 58.4818 149.576 58.4818C147.954 58.4818 147.006 57.3865 147.006 56.1436C147.006 55.0061 147.701 54.2267 148.649 53.7001V53.6579C148.228 53.1102 147.954 52.5204 147.954 51.9095C147.954 50.8984 148.691 49.8662 150.081 49.8662C151.114 49.8662 151.935 50.5614 151.935 51.6357C151.935 52.5204 151.43 53.1945 150.102 53.8686V53.9107C150.819 54.7323 151.598 55.6381 152.146 56.2279C152.525 55.6381 152.799 54.8376 152.946 53.7843H153.936C153.726 55.0904 153.346 56.1225 152.736 56.8598C153.178 57.3233 153.62 57.7867 154.126 58.3344L152.799 58.3555ZM151.493 56.923C150.987 56.3753 150.06 55.3642 149.133 54.2899C148.691 54.5848 148.059 55.1114 148.059 55.9751C148.059 56.923 148.775 57.6603 149.765 57.6603C150.482 57.6603 151.092 57.3443 151.493 56.923ZM148.944 51.8463C148.944 52.4362 149.218 52.8996 149.576 53.342C150.418 52.8575 150.966 52.4151 150.966 51.7199C150.966 51.2144 150.671 50.6456 149.997 50.6456C149.323 50.6246 148.944 51.1933 148.944 51.8463Z" fill="black"></path>
  <path d="M159.054 55.7227L158.191 58.3559H157.074L159.918 50.0352H161.224L164.068 58.3559H162.909L162.025 55.7227H159.054ZM161.793 54.9012L160.971 52.4998C160.782 51.9521 160.655 51.4676 160.529 50.9831H160.508C160.381 51.4886 160.255 51.9942 160.087 52.4998L159.265 54.9223L161.793 54.9012Z" fill="black"></path>
  <path d="M166.385 50.0137V58.3344H165.311V50.0137H166.385Z" fill="black"></path>
  <path d="M170.895 50.1402C171.442 50.0349 172.222 49.9717 172.959 49.9717C174.117 49.9717 174.855 50.1823 175.381 50.6458C175.803 51.0249 176.034 51.5726 176.034 52.2256C176.034 53.321 175.339 54.0583 174.455 54.3532V54.3954C175.108 54.606 175.487 55.2169 175.676 56.0806C175.95 57.2391 176.161 58.0396 176.329 58.3767H175.234C175.108 58.1449 174.918 57.4287 174.665 56.3755C174.412 55.238 173.97 54.7956 172.98 54.7535H171.969V58.3556H170.895V50.1402ZM171.969 53.9319H173.064C174.223 53.9319 174.96 53.3 174.96 52.352C174.96 51.2777 174.181 50.8143 173.043 50.7932C172.517 50.7932 172.158 50.8354 171.969 50.8985V53.9319Z" fill="black"></path>
  <path d="M178.183 55.5543C178.204 57.0289 179.152 57.6397 180.247 57.6397C181.026 57.6397 181.49 57.5134 181.911 57.3238L182.101 58.1032C181.722 58.2717 181.069 58.4823 180.1 58.4823C178.246 58.4823 177.15 57.2606 177.15 55.47C177.15 53.6795 178.225 52.2471 179.973 52.2471C181.932 52.2471 182.459 53.9744 182.459 55.0698C182.459 55.2804 182.438 55.47 182.417 55.5754H178.183V55.5543ZM181.384 54.7749C181.384 54.0797 181.09 53.0054 179.868 53.0054C178.772 53.0054 178.267 54.0165 178.183 54.7749H181.384Z" fill="black"></path>
  <path d="M183.658 57.2391C183.974 57.4497 184.543 57.6604 185.091 57.6604C185.891 57.6604 186.249 57.2601 186.249 56.7757C186.249 56.249 185.933 55.9752 185.133 55.6803C184.058 55.3011 183.532 54.7113 183.532 53.974C183.532 53.005 184.311 52.2256 185.617 52.2256C186.228 52.2256 186.755 52.3941 187.092 52.6048L186.818 53.4052C186.586 53.2578 186.144 53.0682 185.596 53.0682C184.943 53.0682 184.585 53.4474 184.585 53.8897C184.585 54.3953 184.943 54.6059 185.723 54.9009C186.755 55.3011 187.302 55.8067 187.302 56.7125C187.302 57.7657 186.481 58.503 185.048 58.503C184.395 58.503 183.785 58.3345 183.363 58.1028L183.658 57.2391Z" fill="black"></path>
  <path d="M189.325 55.5543C189.346 57.0289 190.294 57.6397 191.39 57.6397C192.169 57.6397 192.632 57.5134 193.054 57.3238L193.243 58.1032C192.864 58.2717 192.19 58.4823 191.242 58.4823C189.388 58.4823 188.293 57.2606 188.293 55.47C188.293 53.6795 189.367 52.2471 191.116 52.2471C193.075 52.2471 193.601 53.9744 193.601 55.0698C193.601 55.2804 193.58 55.47 193.559 55.5754H189.325V55.5543ZM192.527 54.7749C192.527 54.0797 192.232 53.0054 191.01 53.0054C189.915 53.0054 189.409 54.0165 189.325 54.7749H192.527Z" fill="black"></path>
  <path d="M198.257 58.3551L198.172 57.5968H198.13C197.793 58.0602 197.14 58.4815 196.298 58.4815C195.076 58.4815 194.465 57.6389 194.465 56.7542C194.465 55.3217 195.75 54.5213 198.067 54.5213V54.3949C198.067 53.8893 197.941 53.0046 196.698 53.0046C196.129 53.0046 195.56 53.1731 195.139 53.4469L194.886 52.7307C195.392 52.4148 196.108 52.2041 196.866 52.2041C198.699 52.2041 199.162 53.4469 199.162 54.6477V56.8806C199.162 57.4072 199.183 57.9127 199.268 58.313L198.257 58.3551ZM198.088 55.3007C196.887 55.2796 195.539 55.4903 195.539 56.6488C195.539 57.3651 196.003 57.681 196.571 57.681C197.351 57.681 197.856 57.1755 198.025 56.6699C198.067 56.5646 198.088 56.4382 198.088 56.3329V55.3007Z" fill="black"></path>
  <path d="M200.911 54.2272C200.911 53.511 200.911 52.9212 200.869 52.3735H201.817L201.859 53.5531H201.901C202.175 52.7526 202.828 52.2471 203.565 52.2471C203.692 52.2471 203.776 52.2471 203.881 52.2892V53.3214C203.776 53.3003 203.671 53.2793 203.502 53.2793C202.723 53.2793 202.196 53.8691 202.028 54.6696C202.007 54.817 201.986 54.9855 201.986 55.1751V58.356H200.911V54.2272Z" fill="black"></path>
  <path d="M209.127 58.1242C208.832 58.2717 208.221 58.4823 207.399 58.4823C205.588 58.4823 204.408 57.2606 204.408 55.4279C204.408 53.5952 205.672 52.2471 207.631 52.2471C208.284 52.2471 208.853 52.4156 209.148 52.563L208.895 53.4057C208.642 53.2582 208.221 53.1107 207.631 53.1107C206.262 53.1107 205.504 54.1219 205.504 55.3647C205.504 56.755 206.388 57.5976 207.589 57.5976C208.2 57.5976 208.621 57.4291 208.937 57.3027L209.127 58.1242Z" fill="black"></path>
  <path d="M210.391 49.5713H211.486V53.2998H211.507C211.676 52.9838 211.949 52.71 212.286 52.5415C212.602 52.3519 212.982 52.2255 213.403 52.2255C214.203 52.2255 215.509 52.7311 215.509 54.7744V58.3344H214.414V54.9008C214.414 53.9318 214.056 53.1313 213.024 53.1313C212.308 53.1313 211.76 53.6369 211.57 54.2267C211.507 54.3741 211.486 54.5427 211.486 54.7533V58.3554H210.391V49.5713Z" fill="black"></path>
  <path d="M225.79 58.082C225.39 58.2716 224.589 58.4823 223.578 58.4823C221.219 58.4823 219.449 56.9866 219.449 54.2692C219.449 51.5308 221.219 49.8877 223.81 49.8877C224.842 49.8877 225.516 50.0983 225.79 50.2669L225.537 51.1516C225.137 50.962 224.547 50.8146 223.852 50.8146C221.893 50.8146 220.587 52.0574 220.587 54.2482C220.587 56.2915 221.766 57.5975 223.789 57.5975C224.442 57.5975 225.116 57.4711 225.558 57.2605L225.79 58.082Z" fill="black"></path>
  <path d="M227.579 55.5543C227.6 57.0289 228.548 57.6397 229.643 57.6397C230.423 57.6397 230.886 57.5134 231.308 57.3238L231.497 58.1032C231.118 58.2717 230.465 58.4823 229.496 58.4823C227.642 58.4823 226.547 57.2606 226.547 55.47C226.547 53.6795 227.621 52.2471 229.37 52.2471C231.329 52.2471 231.855 53.9744 231.855 55.0698C231.855 55.2804 231.834 55.47 231.813 55.5754H227.579V55.5543ZM230.781 54.7749C230.781 54.0797 230.486 53.0054 229.264 53.0054C228.169 53.0054 227.663 54.0165 227.579 54.7749H230.781Z" fill="black"></path>
  <path d="M233.204 53.9955C233.204 53.3846 233.204 52.879 233.162 52.3735H234.131L234.194 53.3635H234.215C234.51 52.7948 235.205 52.2471 236.195 52.2471C237.017 52.2471 238.323 52.7526 238.323 54.796V58.356H237.228V54.9013C237.228 53.9323 236.87 53.1318 235.837 53.1318C235.121 53.1318 234.552 53.6374 234.384 54.2483C234.342 54.3746 234.3 54.5642 234.3 54.7538V58.356H233.204V53.9955Z" fill="black"></path>
  <path d="M241.335 50.6455V52.3728H242.894V53.1944H241.335V56.4173C241.335 57.1546 241.546 57.5759 242.157 57.5759C242.452 57.5759 242.662 57.5338 242.789 57.4917L242.831 58.3132C242.62 58.3975 242.283 58.4607 241.862 58.4607C241.356 58.4607 240.956 58.2921 240.682 57.9972C240.366 57.6813 240.261 57.1546 240.261 56.4384V53.1733H239.334V52.3518H240.261V50.9194L241.335 50.6455Z" fill="black"></path>
  <path d="M244.138 54.2272C244.138 53.511 244.138 52.9212 244.096 52.3735H245.044L245.086 53.5531H245.128C245.402 52.7526 246.055 52.2471 246.792 52.2471C246.918 52.2471 247.003 52.2471 247.108 52.2892V53.3214C247.003 53.3003 246.897 53.2793 246.729 53.2793C245.949 53.2793 245.423 53.8691 245.254 54.6696C245.233 54.817 245.212 54.9855 245.212 55.1751V58.356H244.138V54.2272Z" fill="black"></path>
  <path d="M248.686 55.5543C248.708 57.0289 249.655 57.6397 250.751 57.6397C251.53 57.6397 251.994 57.5134 252.415 57.3238L252.605 58.1032C252.225 58.2717 251.572 58.4823 250.603 58.4823C248.75 58.4823 247.654 57.2606 247.654 55.47C247.654 53.6795 248.729 52.2471 250.477 52.2471C252.436 52.2471 252.963 53.9744 252.963 55.0698C252.963 55.2804 252.942 55.47 252.921 55.5754H248.686V55.5543ZM251.888 54.7749C251.888 54.0797 251.593 53.0054 250.372 53.0054C249.276 53.0054 248.771 54.0165 248.686 54.7749H251.888Z" fill="black"></path>
  <path d="M61.7138 42.1981V36.5737L86.7181 36.6159C88.0031 36.6159 88.9721 36.321 89.6462 35.7311C90.3203 35.1413 90.6784 34.1723 90.6784 32.8452C90.6784 31.5181 90.3413 30.5491 89.6462 29.9593C88.9721 29.3695 87.982 29.0746 86.7181 29.0746H71.151C67.928 29.0746 65.4424 28.2952 63.6518 26.7574C61.8613 25.2196 60.9766 22.9446 60.9766 19.9323C60.9766 16.92 61.8613 14.645 63.6518 13.1072C65.4424 11.5694 67.928 10.79 71.151 10.79H95.5865V16.4355L71.8883 16.3934C70.6454 16.3934 69.6765 16.6672 68.9813 17.236C68.2862 17.8047 67.928 18.7105 67.928 19.9534C67.928 21.1962 68.2862 22.102 68.9813 22.6708C69.6765 23.2395 70.6454 23.5134 71.8883 23.5134H87.4554C90.6784 23.5134 93.1641 24.2928 94.9546 25.8727C96.7451 27.4525 97.6299 29.7697 97.6299 32.8663C97.6299 35.9629 96.7451 38.2589 94.9546 39.8388C93.1641 41.4187 90.6573 42.2192 87.4554 42.2192L61.7138 42.1981Z" fill="black"></path>
  <path d="M101.969 41.9882V11.0225H128.026C131.249 11.0225 133.735 11.8229 135.525 13.4449C137.316 15.067 138.201 17.5105 138.201 20.8177C138.201 24.1039 137.316 26.5685 135.525 28.1905C133.735 29.8125 131.228 30.613 128.026 30.613H108.941V42.0092L101.969 41.9882ZM127.184 16.6468H108.92V24.9254L127.184 24.9676C128.448 24.9676 129.438 24.6516 130.133 24.0196C130.807 23.3877 131.165 22.3134 131.165 20.8177C131.165 19.3221 130.828 18.2057 130.133 17.5948C129.459 16.9628 128.469 16.6468 127.184 16.6468Z" fill="black"></path>
  <path d="M136.01 41.9882L150.018 11.0225H160.761L174.77 41.9882H167.207L164.258 35.458H146.563L143.614 41.9882H136.01ZM149.07 29.8125H161.73L155.664 16.4362H155.095L149.07 29.8125Z" fill="black"></path>
  <path d="M178.225 41.9882V11.0225H204.282C207.505 11.0225 209.991 11.8229 211.781 13.4449C213.572 15.067 214.457 17.5105 214.457 20.8177C214.457 23.6194 213.804 25.8102 212.498 27.3901C211.192 28.9699 209.338 29.9811 206.936 30.3813L214.12 41.9882H206.199L199.543 30.592H185.197V41.9882H178.225ZM203.461 16.6468H185.197V24.9254L203.461 24.9676C204.725 24.9676 205.715 24.6516 206.41 24.0196C207.084 23.3877 207.442 22.3134 207.442 20.8177C207.442 19.3221 207.105 18.2057 206.41 17.5948C205.715 16.9628 204.725 16.6468 203.461 16.6468Z" fill="black"></path>
  <path d="M235.668 42.1988C229.938 42.1988 225.536 40.8717 222.481 38.2386C219.427 35.5843 217.91 31.6662 217.91 26.4842C217.91 21.3022 219.427 17.4052 222.481 14.751C225.536 12.0967 229.917 10.7907 235.668 10.8118L251.319 10.896V16.4362H236.153C232.382 16.4362 229.58 17.2366 227.769 18.8165C225.936 20.3964 225.03 22.9663 225.03 26.4842C225.03 30.0021 225.936 32.572 227.769 34.173C229.601 35.7739 232.382 36.5744 236.153 36.5744H251.762V42.1988H235.668Z" fill="black"></path>
  <path d="M25.4596 23.1562C27.5661 23.1562 29.4619 23.9989 30.8522 25.3892C32.2425 26.7794 33.0851 28.6753 33.0851 30.7818C33.0851 32.8883 32.2215 34.8053 30.8522 36.1745C29.483 37.5648 27.5661 38.4074 25.4596 38.4074C23.353 38.4074 21.4361 37.5648 20.0669 36.1745C18.6766 34.7842 17.834 32.8883 17.834 30.7818C17.834 28.6753 18.6977 26.7584 20.0669 25.3892C21.4572 23.9989 23.353 23.1562 25.4596 23.1562ZM30.2413 26C29.0196 24.7783 27.3344 24.0199 25.4596 24.0199C23.5848 24.0199 21.8996 24.7783 20.6778 26C19.456 27.2218 18.6977 28.907 18.6977 30.7818C18.6977 32.6356 19.456 34.3418 20.6778 35.5636C21.8996 36.7854 23.5848 37.5437 25.4596 37.5437C27.3133 37.5437 29.0196 36.7854 30.2413 35.5636C31.4631 34.3418 32.2215 32.6566 32.2215 30.7818C32.2215 28.907 31.4631 27.2218 30.2413 26Z" fill="black"></path>
  <path d="M23.5426 37.7123C22.2998 35.6268 21.8364 33.0358 22.047 30.508C22.2577 28.0012 23.1003 25.5577 24.4906 23.6618C24.8066 23.6197 25.1225 23.5986 25.4596 23.5986C25.5228 23.5986 25.586 23.5986 25.6492 23.5986C24.0903 25.4102 23.1213 27.9802 22.9107 30.5923C22.7 33.2465 23.2477 35.9217 24.7223 37.944C24.3221 37.8808 23.9218 37.8176 23.5426 37.7123Z" fill="black"></path>
  <path d="M23.9648 37.7962C24.3019 37.5224 24.6389 37.2275 24.9338 36.9115C26.7665 34.9946 27.8408 32.4668 28.1779 29.939C28.4728 27.7482 28.1989 25.5785 27.3563 23.8301C27.7355 23.9354 28.1147 24.0829 28.4728 24.2303C29.1258 25.9787 29.3154 28.001 29.0415 30.0443C28.6834 32.7406 27.5248 35.437 25.5658 37.5013C25.4183 37.6488 25.2709 37.7963 25.1234 37.9437C24.7232 37.9437 24.323 37.8805 23.9648 37.7962Z" fill="black"></path>
  <path d="M32.4111 32.6347C32.3479 32.5083 32.2636 32.3819 32.1794 32.2555C30.768 29.9594 28.514 28.3374 26.0494 27.4737C23.7744 26.6733 21.3519 26.5047 19.3086 27.0314C19.5403 26.6522 19.7931 26.2941 20.088 25.9781C22.0681 25.6832 24.2589 25.8939 26.3233 26.6311C28.7879 27.4948 31.0629 29.0747 32.6007 31.3287C32.6007 31.771 32.5164 32.2134 32.4111 32.6347Z" fill="black"></path>
  <path d="M31.2735 35.0158C28.7247 36.1112 25.9019 36.2165 23.332 35.5846C21.6889 35.1843 20.1722 34.4892 18.8662 33.5834C18.6766 33.1199 18.5081 32.6354 18.4238 32.1299C19.8141 33.3306 21.6047 34.2575 23.5427 34.742C26.1126 35.3739 28.9564 35.2265 31.4631 33.9836C31.6738 33.8783 31.8844 33.773 32.074 33.6466C31.8423 34.1311 31.5895 34.5945 31.2735 35.0158Z" fill="black"></path>
  <path d="M32.5171 29.3283C32.3275 29.2441 32.1379 29.1809 31.9483 29.0966C29.3994 28.1487 26.5978 28.3172 24.091 29.1598C21.8581 29.9392 19.878 31.2663 18.593 32.8883C18.4877 32.5513 18.4035 32.1932 18.3613 31.8351C19.7516 30.3184 21.6685 29.0755 23.8172 28.3383C26.4714 27.4325 29.4626 27.2639 32.2011 28.254C32.3275 28.591 32.4328 28.9491 32.5171 29.3283Z" fill="black"></path>
  <path fill-rule="evenodd" clip-rule="evenodd" d="M22.7007 27.8955C23.5222 27.8955 24.1963 28.5696 24.1963 29.3911C24.1963 30.2127 23.5222 30.8868 22.7007 30.8868C21.8792 30.8868 21.2051 30.2127 21.2051 29.3911C21.2051 28.5696 21.8581 27.8955 22.7007 27.8955Z" fill="black"></path>
  <path fill-rule="evenodd" clip-rule="evenodd" d="M28.6402 26.6318C29.4617 26.6318 30.1358 27.3059 30.1358 28.1275C30.1358 28.949 29.4617 29.6231 28.6402 29.6231C27.8186 29.6231 27.1445 28.949 27.1445 28.1275C27.1445 27.3059 27.7976 26.6318 28.6402 26.6318Z" fill="black"></path>
  <path fill-rule="evenodd" clip-rule="evenodd" d="M26.8921 33.8779C27.7136 33.8779 28.3877 34.552 28.3877 35.3736C28.3877 36.1951 27.7136 36.8692 26.8921 36.8692C26.0706 36.8692 25.3965 36.1951 25.3965 35.3736C25.3965 34.552 26.0706 33.8779 26.8921 33.8779Z" fill="black"></path>
</svg>
